<svg xmlns="http://www.w3.org/2000/svg" viewBox="0 0 300 400" width="300" height="400">
  <!-- Hood -->
  <path 
    d="M50 100 Q150 0 250 100 Q230 150 200 130 Q150 80 100 130 Q70 150 50 100 Z" 
    fill="#D3D3D3" 
    stroke="#333" 
    stroke-width="4"/>
  <path 
    d="M50 100 Q150 30 250 100 Q230 140 200 120 Q150 70 100 120 Q70 140 50 100 Z" 
    fill="none" 
    stroke="#888" 
    stroke-width="2" 
    stroke-dasharray="5,5"/>

  <!-- Jacket Body -->
  <rect 
    x="75" 
    y="100" 
    width="150" 
    height="250" 
    fill="#4682B4" 
    stroke="#333" 
    stroke-width="4" 
    rx="20"/>
  
  <!-- Padding Details -->
  <path 
    d="M75 150 H225" 
    stroke="#5A9BD5" 
    stroke-width="4"/>
  <path 
    d="M75 200 H225" 
    stroke="#5A9BD5" 
    stroke-width="4"/>
  <path 
    d="M75 250 H225" 
    stroke="#5A9BD5" 
    stroke-width="4"/>

  <!-- Zipper -->
  <rect 
    x="147" 
    y="100" 
    width="6" 
    height="250" 
    fill="#C0C0C0"/>
  <circle 
    cx="150" 
    cy="180" 
    r="4" 
    fill="#333"/>
  <circle 
    cx="150" 
    cy="220" 
    r="4" 
    fill="#333"/>

  <!-- Sleeves -->
  <rect 
    x="30" 
    y="130" 
    width="45" 
    height="150" 
    fill="#4682B4" 
    stroke="#333" 
    stroke-width="4" 
    rx="20"/>
  <rect 
    x="225" 
    y="130" 
    width="45" 
    height="150" 
    fill="#4682B4" 
    stroke="#333" 
    stroke-width="4" 
    rx="20"/>
  
  <!-- Cuffs -->
  <rect 
    x="30" 
    y="280" 
    width="45" 
    height="20" 
    fill="#5A9BD5" 
    stroke="#333" 
    stroke-width="2"/>
  <rect 
    x="225" 
    y="280" 
    width="45" 
    height="20" 
    fill="#5A9BD5" 
    stroke="#333" 
    stroke-width="2"/>
</svg>
